#N canvas 827 239 527 327 12;
#X obj 824 9 loadbang;
#X obj 824 70 s pd;
#X msg 824 38 dsp 1;
#X obj 270 530 dac~;
#X obj 270 338 metro 500, f 10;
#X obj 271 275 tgl 40 0 empty empty empty 17 7 0 10 #e4e4e4 #4d4d4d #373737 0 1;
#X obj 271 451 mtof, f 5;
#X obj 270 486 osc~, f 6;
#X obj 467 208 loadbang, f 9;
#X msg 467 258 \; pd dsp 1, f 9;
#X obj 259 379 random 12, f 11;
#X obj 271 413 + 48;
#X obj 454 354 print;
#X msg 454 318 LOADED;
#X msg 568 258 rgb 0 255 0 0;
#X obj 568 299 s _patch;
#X obj 693 354 bng 20 250 50 0 empty empty rainbow 0 -10 0 12 #fcfcfc #000000 #000000;
#N canvas 700 318 450 300 looper 0;
#X obj 84 29 inlet num;
#X obj 76 113 until;
#X obj 75 149 f;
#X obj 114 144 + 1;
#X obj 169 140 sel 0;
#X obj 87 71 t f f;
#X obj 114 170 mod;
#X obj 74 224 outlet nums;
#X connect 0 0 5 0;
#X connect 1 0 2 0;
#X connect 2 0 3 0;
#X connect 2 0 7 0;
#X connect 3 0 6 0;
#X connect 4 0 1 1;
#X connect 5 0 1 0;
#X connect 5 1 6 1;
#X connect 6 0 2 1;
#X connect 6 0 4 0;
#X restore 692 409 pd looper;
#X msg 695 381 8;
#X obj 763 410 * 0.125;
#X obj 697 440 pack 0 0;
#X msg 695 467 hsv \$1 \$2 1 1;
#X obj 568 355 bng 20 250 50 0 empty empty clear 0 -10 0 12 #fcfcfc #000000 #000000;
#N canvas 700 318 450 300 looper 0;
#X obj 84 29 inlet num;
#X obj 76 113 until;
#X obj 75 149 f;
#X obj 114 144 + 1;
#X obj 169 140 sel 0;
#X obj 87 71 t f f;
#X obj 114 170 mod;
#X obj 74 224 outlet nums;
#X connect 0 0 5 0;
#X connect 1 0 2 0;
#X connect 2 0 3 0;
#X connect 2 0 7 0;
#X connect 3 0 6 0;
#X connect 4 0 1 1;
#X connect 5 0 1 0;
#X connect 5 1 6 1;
#X connect 6 0 2 1;
#X connect 6 0 4 0;
#X restore 567 410 pd looper;
#X msg 570 382 8;
#X msg 567 436 rgb \$1 0 0 0;
#X obj 695 494 s _patch;
#X obj 566 462 s _patch;
#X connect 0 0 2 0;
#X connect 2 0 1 0;
#X connect 4 0 10 0;
#X connect 5 0 4 0;
#X connect 6 0 7 0;
#X connect 7 0 3 0;
#X connect 7 0 3 1;
#X connect 8 0 9 0;
#X connect 8 0 5 0;
#X connect 8 0 13 0;
#X connect 8 0 14 0;
#X connect 10 0 11 0;
#X connect 11 0 6 0;
#X connect 13 0 12 0;
#X connect 14 0 15 0;
#X connect 16 0 18 0;
#X connect 17 0 19 0;
#X connect 17 0 20 0;
#X connect 18 0 17 0;
#X connect 19 0 20 1;
#X connect 20 0 21 0;
#X connect 21 0 26 0;
#X connect 22 0 24 0;
#X connect 23 0 25 0;
#X connect 24 0 23 0;
#X connect 25 0 27 0;
