#N canvas 827 239 527 327 12;
#X obj 77 29 r _host;
#X text 144 28 All messages from host come here;
#X obj 400 29 s _patch;
#X text 473 28 All messages to host go here;
#X obj 824 9 loadbang;
#X obj 824 70 s pd;
#X msg 824 38 dsp 1;
#X obj 278 696 bob~;
#X obj 259 651 line~;
#X obj 259 609 pack f 50;
#X obj 237 544 hsl 162 19 60 5000 0 1 empty empty cut -2 -8 0 10 #dfdfdf #000000 #000000 0 1;
#X obj 345 593 hsl 162 19 0 8 0 1 empty empty res -2 -8 0 10 #dfdfdf #000000 #000000 1073 1;
#X obj 342 661 sig~;
#X obj 564 525 sig2float~;
#X obj 564 559 + 1;
#X obj 564 593 / 2;
#X obj 564 663 mtof;
#X obj 407 369 hsl 268 34 0 10 0 1 empty empty empty -2 -8 0 10 #e4e4e4 #4d4d4d #373737 4607 1;
#X obj 564 629 * 128;
#X obj 564 457 osc~;
#X obj 278 744 *~;
#X obj 270 781 dac~;
#X obj 320 747 hsl 128 17 0.01 1 0 1 empty empty empty -2 -8 0 10 #e4e4e4 #4d4d4d #373737 4349 1;
#X obj 77 63 route rotary;
#X obj 39 197 mtof;
#X obj 34 164 * 0.498039;
#X obj 77 95 route 0 1 2 3 4 5 6 7;
#X obj 39 228 phasor~;
#X obj 189 219 * 0.0392157;
#X text 121 163 range 127;
#X text 278 218 range 10;
#X obj 449 234 * 0.0156863;
#X text 536 233 range 4;
#X obj 115 282 / 255;
#X text 164 281 range 1;
#X connect 0 0 23 0;
#X connect 4 0 6 0;
#X connect 6 0 5 0;
#X connect 7 0 20 0;
#X connect 8 0 7 1;
#X connect 9 0 8 0;
#X connect 10 0 9 0;
#X connect 11 0 12 0;
#X connect 12 0 7 2;
#X connect 13 0 14 0;
#X connect 14 0 15 0;
#X connect 15 0 18 0;
#X connect 16 0 10 0;
#X connect 17 0 19 0;
#X connect 18 0 16 0;
#X connect 19 0 13 0;
#X connect 20 0 21 0;
#X connect 20 0 21 1;
#X connect 22 0 20 1;
#X connect 23 0 26 0;
#X connect 24 0 27 0;
#X connect 25 0 24 0;
#X connect 26 0 33 0;
#X connect 26 1 28 0;
#X connect 26 2 31 0;
#X connect 26 3 25 0;
#X connect 27 0 7 0;
#X connect 28 0 17 0;
#X connect 31 0 11 0;
#X connect 33 0 22 0;
