#N canvas 827 239 527 327 12;
#X obj 824 9 loadbang;
#X obj 824 70 s pd;
#X msg 824 38 dsp 1;
#X obj 270 530 dac~;
#X obj 270 338 metro 500, f 10;
#X obj 271 275 tgl 40 0 empty empty empty 17 7 0 10 #e4e4e4 #4d4d4d #373737 0 1;
#X obj 271 451 mtof, f 5;
#X obj 270 486 osc~, f 6;
#X obj 467 208 loadbang, f 9;
#X msg 467 258 \; pd dsp 1, f 9;
#X obj 259 379 random 12, f 11;
#X obj 271 413 + 48;
#X obj 454 354 print;
#X msg 454 318 LOADED;
#X msg 568 258 rgb 0 255 0 0;
#X obj 568 299 s _patch;
#X connect 0 0 2 0;
#X connect 2 0 1 0;
#X connect 4 0 10 0;
#X connect 5 0 4 0;
#X connect 6 0 7 0;
#X connect 7 0 3 0;
#X connect 7 0 3 1;
#X connect 8 0 9 0;
#X connect 8 0 5 0;
#X connect 8 0 13 0;
#X connect 8 0 14 0;
#X connect 10 0 11 0;
#X connect 11 0 6 0;
#X connect 13 0 12 0;
#X connect 14 0 15 0;
