#N canvas 827 239 527 327 12;
#X obj 341 5 loadbang;
#X obj 341 66 s pd;
#X msg 341 34 dsp 1;
#X obj 77 163 knob 50 0 255 0 0 \$0-r-0-s \$0-r-0-r #E4E4E4 #B7B7B7 #4D4D4D 1 0 25 0 1 270 0 0 0;
#X obj 134 163 knob 50 0 255 0 0 \$0-r-1-s \$0-r-1-r #E4E4E4 #B7B7B7 #4D4D4D 1 0 25 0 1 270 0 0 0;
#X obj 191 163 knob 50 0 255 0 0 \$0-r-2-s \$0-r-2-r #E4E4E4 #B7B7B7 #4D4D4D 1 0 25 0 1 270 0 0 0;
#X obj 248 163 knob 50 0 255 0 0 \$0-r-3-s \$0-r-3-r #E4E4E4 #B7B7B7 #4D4D4D 1 0 25 0 1 270 0 0 0;
#X obj 328 163 knob 50 0 255 0 0 \$0-r-4-s \$0-r-4-r #E4E4E4 #B7B7B7 #4D4D4D 1 0 25 0 1 270 0 0 0;
#X obj 385 163 knob 50 0 255 0 0 \$0-r-5-s \$0-r-5-r #E4E4E4 #B7B7B7 #4D4D4D 1 0 25 0 1 270 0 0 0;
#X obj 442 163 knob 50 0 255 0 0 \$0-r-6-s \$0-r-6-r #E4E4E4 #B7B7B7 #4D4D4D 1 0 25 0 1 270 0 0 0;
#X obj 499 163 knob 50 0 255 0 0 \$0-r-7-s \$0-r-7-r #E4E4E4 #B7B7B7 #4D4D4D 1 0 25 0 1 270 0 0 0;
#X obj 87 230 button 25 25 228 228 228 77 77 77 0;
#X obj 148 230 button 25 25 228 228 228 77 77 77 0;
#X obj 202 230 button 25 25 228 228 228 77 77 77 0;
#X obj 263 230 button 25 25 228 228 228 77 77 77 0;
#X obj 341 230 button 25 25 228 228 228 77 77 77 0;
#X obj 402 230 button 25 25 228 228 228 77 77 77 0;
#X obj 456 230 button 25 25 228 228 228 77 77 77 0;
#X obj 517 230 button 25 25 228 228 228 77 77 77 0;
#X obj 37 316 s \$0-b-0-s;
#X obj 119 316 s \$0-b-1-s;
#X obj 201 316 s \$0-b-2-s;
#X obj 283 316 s \$0-b-3-s;
#X obj 365 316 s \$0-b-4-s;
#X obj 447 316 s \$0-b-5-s;
#X obj 529 316 s \$0-b-6-s;
#X obj 622 316 s \$0-b-7-s;
#X obj 559 174 tgl 26 0 \$0-switch \$0-null-r empty 17 7 0 10 #e4e4e4 #4d4d4d #373737 0 1;
#X obj 224 41 s _host;
#X obj 205 66 print _host;
#X obj 62 16 r _patch;
#X obj 62 73 print _patch;
#N canvas 0 22 450 300 process_patch 0;
#X obj 134 59 inlet;
#X restore 62 47 pd process_patch;
#N canvas 0 22 450 300 output_host 1;
#X obj 464 459 outlet;
#X obj 174 81 r \$0-r-0-s;
#X msg 164 149 rotary 0 \$1;
#X msg 249 149 rotary 1 \$1;
#X msg 334 149 rotary 2 \$1;
#X msg 419 149 rotary 3 \$1;
#X msg 504 149 rotary 4 \$1;
#X msg 589 149 rotary 5 \$1;
#X msg 674 149 rotary 6 \$1;
#X msg 759 149 rotary 7 \$1;
#X obj 164 241 r \$0-b-0-s;
#X msg 249 289 button 1 \$1;
#X msg 334 289 button 2 \$1;
#X msg 419 289 button 3 \$1;
#X msg 504 289 button 4 \$1;
#X msg 589 289 button 5 \$1;
#X msg 674 289 button 6 \$1;
#X msg 759 289 button 7 \$1;
#X msg 874 221 switch \$0;
#X msg 164 289 button 0 \$1;
#X obj 249 241 r \$0-b-1-s;
#X obj 334 241 r \$0-b-2-s;
#X obj 419 241 r \$0-b-3-s;
#X obj 504 241 r \$0-b-4-s;
#X obj 589 241 r \$0-b-5-s;
#X obj 674 241 r \$0-b-6-s;
#X obj 759 241 r \$0-b-7-s;
#X obj 254 81 r \$0-r-1-s;
#X obj 334 81 r \$0-r-2-s;
#X obj 414 81 r \$0-r-3-s;
#X obj 494 81 r \$0-r-4-s;
#X obj 574 81 r \$0-r-5-s;
#X obj 654 81 r \$0-r-6-s;
#X obj 734 81 r \$0-r-7-s;
#X obj 174 119 i;
#X obj 254 119 i;
#X obj 334 119 i;
#X obj 414 119 i;
#X obj 494 119 i;
#X obj 574 119 i;
#X obj 654 119 i;
#X obj 734 119 i;
#X obj 874 189 r \$0-switch;
#X obj 39 499 r \$0-gpio-0-s;
#X msg 39 535 gpio 0 \$1;
#X msg 141 535 gpio 1 \$1;
#X msg 243 535 gpio 2 \$1;
#X msg 345 535 gpio 3 \$1;
#X msg 447 535 gpio 4 \$1;
#X msg 549 535 gpio 5 \$1;
#X msg 651 535 gpio 6 \$1;
#X obj 141 499 r \$0-gpio-1-s;
#X obj 243 499 r \$0-gpio-2-s;
#X obj 345 499 r \$0-gpio-3-s;
#X obj 447 499 r \$0-gpio-4-s;
#X obj 549 499 r \$0-gpio-5-s;
#X obj 651 499 r \$0-gpio-6-s;
#X msg 759 535 gpio 7 \$1;
#X obj 863 499 r \$0-gpio-8-s;
#X obj 969 499 r \$0-gpio-9-s;
#X msg 863 535 gpio 8 \$1;
#X msg 969 535 gpio 9 \$1;
#X obj 759 499 r \$0-gpio-7-s;
#X msg 141 626 gpio 1 \$1;
#X msg 243 626 gpio 2 \$1;
#X msg 345 626 gpio 3 \$1;
#X msg 146 810 gpio 1 \$1;
#X msg 248 810 gpio 2 \$1;
#X msg 350 810 gpio 3 \$1;
#X msg 452 810 gpio 4 \$1;
#X msg 554 810 gpio 5 \$1;
#X msg 656 810 gpio 6 \$1;
#X msg 764 810 gpio 7 \$1;
#X msg 868 810 gpio 8 \$1;
#X msg 974 810 gpio 9 \$1;
#X obj 39 590 r \$0-gpio-10-s;
#X msg 39 626 gpio 10 \$1;
#X obj 44 684 r \$0-gpio-20-s;
#X msg 44 720 gpio 20 \$1;
#X obj 44 774 r \$0-gpio-30-s;
#X msg 44 810 gpio 30 \$1;
#X obj 141 590 r \$0-gpio-11-s;
#X obj 243 590 r \$0-gpio-12-s;
#X obj 345 590 r \$0-gpio-13-s;
#X obj 447 590 r \$0-gpio-14-s;
#X obj 549 590 r \$0-gpio-15-s;
#X obj 651 590 r \$0-gpio-16-s;
#X obj 759 590 r \$0-gpio-17-s;
#X obj 863 590 r \$0-gpio-18-s;
#X obj 969 590 r \$0-gpio-19-s;
#X obj 146 684 r \$0-gpio-21-s;
#X obj 248 684 r \$0-gpio-22-s;
#X obj 350 684 r \$0-gpio-23-s;
#X obj 452 684 r \$0-gpio-24-s;
#X obj 554 684 r \$0-gpio-25-s;
#X obj 656 684 r \$0-gpio-26-s;
#X obj 764 684 r \$0-gpio-27-s;
#X obj 868 684 r \$0-gpio-28-s;
#X obj 974 684 r \$0-gpio-29-s;
#X obj 146 774 r \$0-gpio-31-s;
#X obj 248 774 r \$0-gpio-32-s;
#X obj 350 774 r \$0-gpio-33-s;
#X obj 452 774 r \$0-gpio-34-s;
#X obj 554 774 r \$0-gpio-35-s;
#X obj 656 774 r \$0-gpio-36-s;
#X obj 764 774 r \$0-gpio-37-s;
#X obj 868 774 r \$0-gpio-38-s;
#X obj 974 774 r \$0-gpio-39-s;
#X msg 146 720 gpio 21 \$1;
#X msg 248 720 gpio 22 \$1;
#X msg 350 720 gpio 23 \$1;
#X msg 452 720 gpio 24 \$1;
#X msg 554 720 gpio 25 \$1;
#X msg 656 720 gpio 26 \$1;
#X msg 764 720 gpio 27 \$1;
#X msg 868 720 gpio 28 \$1;
#X msg 974 720 gpio 29 \$1;
#X msg 969 626 gpio 19 \$1;
#X msg 863 626 gpio 18 \$1;
#X msg 759 626 gpio 17 \$1;
#X msg 651 626 gpio 16 \$1;
#X msg 549 626 gpio 15 \$1;
#X msg 447 626 gpio 14 \$1;
#X connect 1 0 34 0 32.................I.........PB.........HA....;
#X connect 2 0 0 0 32.................gA...vR...PX....rD...HR....;
#X connect 3 0 0 0 32.................gA...bM...PX....WC...HR....;
#X connect 4 0 0 0 32.................sA...HH...Pa....BB...HR....;
#X connect 5 0 0 0 32.................QB...zB...Pj....s....HR....;
#X connect 6 0 0 0 32.................QB...j8+++ej....Y++++KR....;
#X connect 7 0 0 0 32.................gA...P3+++eX....D9+++KR....;
#X connect 8 0 0 0 32.................gA...7x+++eX....u7+++KR....;
#X connect 9 0 0 0 32.................sA...ns+++ea....Z6+++KR....;
#X connect 10 0 19 0 32.................T....n.....E....J....fB....;
#X connect 11 0 0 0 32.................x....bM...fL....WC...XI....;
#X connect 12 0 0 0 32.................3....HH....N....BB...XI....;
#X connect 13 0 0 0 32.................KA...zB...vR....s....XI....;
#X connect 14 0 0 0 32.................KA...j8++++R....Y++++aI....;
#X connect 15 0 0 0 32.................x....P3+++uL....D9+++aI....;
#X connect 16 0 0 0 32.................x....7x+++uL....u7+++aI....;
#X connect 17 0 0 0 32.................3....ns+++ON....Z6+++aI....;
#X connect 18 0 0 0 32.................j....bl+++OI....m4+++qM....;
#X connect 19 0 0 0 32.................x....vR...fL....rD...XI....;
#X connect 20 0 11 0 32.................T....7.....E....O....fB....;
#X connect 21 0 12 0 32.................T....PA....E....T....fB....;
#X connect 22 0 13 0 32.................T....jA....E....Y....fB....;
#X connect 23 0 14 0 32.................T....3A....E....d....fB....;
#X connect 24 0 15 0 32.................T....LB....E....i....fB....;
#X connect 25 0 16 0 32.................T....fB....E....n....fB....;
#X connect 26 0 17 0 32.................T....zB....E....s....fB....;
#X connect 27 0 35 0 32.................I....H....PB....B....HA....;
#X connect 28 0 36 0 32.................I....f....PB....H....HA....;
#X connect 29 0 37 0 32.................I....nA...PB....Z....HA....;
#X connect 30 0 38 0 32.................I....n....PB....J....HA....;
#X connect 31 0 39 0 32.................I....7....PB....O....HA....;
#X connect 32 0 40 0 32.................I....PA...PB....T....HA....;
#X connect 33 0 41 0 32.................I....rB...PB....q....HA....;
#X connect 34 0 2 0 32.................E....b++++eA....2++++q.....;
#X connect 35 0 3 0 32.................E....n++++eA....5++++q.....;
#X connect 36 0 4 0 32.................E....j++++eA....4++++q.....;
#X connect 37 0 5 0 32.................E....v9+++eA....r++++q.....;
#X connect 38 0 6 0 32.................E.........PA.........n.....;
#X connect 39 0 7 0 32.................E.........PA.........n.....;
#X connect 40 0 8 0 32.................E.........PA.........n.....;
#X connect 41 0 9 0 32.................E....79+++eA....u++++q.....;
#X connect 42 0 18 0 32.................F.........fA.........v.....;
#X connect 43 0 44 0 32.................H..........B..........A....;
#X connect 44 0 0 0 48.................49++++I...Pt++++eB...D5+++epA...g9+++mZ...Pn++++;
#X connect 45 0 0 0 48.................49+++mG...Pt++++4A...D5++++PA...g9+++OT...Pn++++;
#X connect 46 0 0 0 48.................49+++OE...Pt++++SA...D5+++e2....g9+++2M...Pn++++;
#X connect 47 0 0 0 48.................49+++2B...Pt++++s....D5++++c....g9+++eG...Pn++++;
#X connect 48 0 0 0 48......................j..........I....D5+++eD....g9+++GA...Pn++++;
#X connect 49 0 0 0 48......................X8+++O.....V++++G5+++Oq++++g9+++y5+++en++++;
#X connect 50 0 0 0 48.................49+++u6+++et++++69+++G5+++uQ++++g9+++az+++en++++;
#X connect 51 0 45 0 32.................H..........B..........A....;
#X connect 52 0 46 0 32.................H..........B..........A....;
#X connect 53 0 47 0 32.................H..........B..........A....;
#X connect 54 0 48 0 32.................H..........B..........A....;
#X connect 55 0 49 0 32.................H..........B..........A....;
#X connect 56 0 50 0 32.................H..........B..........A....;
#X connect 57 0 0 0 48.................49+++K4+++et++++R9+++G5+++u19+++g9+++qs+++en++++;
#X connect 58 0 60 0 32.................H..........B..........A....;
#X connect 59 0 61 0 32.................H..........B..........A....;
#X connect 60 0 0 0 48.................w9+++y2+++er++++78+++G5+++ub9+++g9+++Km+++en++++;
#X connect 61 0 0 0 48.................49+++Sz+++et++++D8+++G5+++OB9+++g9+++if+++en++++;
#X connect 62 0 57 0 32.................H..........B..........A....;
#X connect 64 0 0 0 48.................c8+++OE...PW++++SA...Xz+++e2....F8+++2M...fQ++++;
#X connect 65 0 0 0 48.................c8+++2B...PW++++s....Xz++++c....F8+++eG...fQ++++;
#X connect 66 0 0 0 32.................N5+++6S...fi9+++9D...3n+++O;
#X connect 67 0 0 0 32.................N5+++iM...fi9+++XC...3n+++O;
#X connect 68 0 0 0 32.................N5+++KG...fi9+++xA...3n+++O;
#X connect 69 0 0 0 48......................X..........F....3n+++OC....N5+++y....fi9+++;
#X connect 70 0 0 0 32.................N5+++e5+++ui9+++m9+++6n+++O;
#X connect 71 0 0 0 32.................N5+++Gz+++ui9+++A8+++6n+++O;
#X connect 72 0 0 0 32.................N5+++Ws+++ui9+++U6+++6n+++O;
#X connect 73 0 0 0 32.................N5+++2l+++ui9+++s4+++6n+++O;
#X connect 74 0 0 0 32.................N5+++Of+++ui9+++C3+++6n+++O;
#X connect 75 0 76 0 32.................H..........B..........A....;
#X connect 76 0 0 0 48.................c8++++I...PW++++eB...Xz+++epA...F8+++mZ...fQ++++;
#X connect 77 0 78 0 32.................H..........B..........A....;
#X connect 78 0 0 0 32.................n6+++SZ....59+++jF...ft+++O;
#X connect 79 0 80 0 32.................H..........B..........A....;
#X connect 80 0 0 0 32.................N5+++SZ...fi9+++jF...3n+++O;
#X connect 81 0 63 0 32.................H..........B..........A....;
#X connect 82 0 64 0 32.................H..........B..........A....;
#X connect 83 0 65 0 32.................H..........B..........A....;
#X connect 84 0 122 0 32.................H..........B..........A....;
#X connect 85 0 121 0 32.................H..........B..........A....;
#X connect 86 0 120 0 32.................H..........B..........A....;
#X connect 87 0 119 0 32.................H..........B..........A....;
#X connect 88 0 118 0 32.................H..........B..........A....;
#X connect 89 0 117 0 32.................H..........B..........A....;
#X connect 90 0 108 0 32.................H..........B..........A....;
#X connect 91 0 109 0 32.................H..........B..........A....;
#X connect 92 0 110 0 32.................H..........B..........A....;
#X connect 93 0 111 0 32.................H..........B..........A....;
#X connect 94 0 112 0 32.................H..........B..........A....;
#X connect 95 0 113 0 32.................H..........B..........A....;
#X connect 96 0 114 0 32.................H..........B..........A....;
#X connect 97 0 115 0 32.................H..........B..........A....;
#X connect 98 0 116 0 32.................H..........B..........A....;
#X connect 99 0 66 0 32.................H..........B..........A....;
#X connect 100 0 67 0 32.................H..........B..........A....;
#X connect 101 0 68 0 32.................H..........B..........A....;
#X connect 102 0 69 0 32.................H..........B..........A....;
#X connect 103 0 70 0 32.................H..........B..........A....;
#X connect 104 0 71 0 32.................H..........B..........A....;
#X connect 105 0 72 0 32.................H..........B..........A....;
#X connect 106 0 73 0 32.................H..........B..........A....;
#X connect 107 0 74 0 32.................H..........B..........A....;
#X connect 108 0 0 0 32.................n6+++6S....59+++9D...ft+++O;
#X connect 109 0 0 0 32.................n6+++iM....59+++XC...ft+++O;
#X connect 110 0 0 0 32.................n6+++KG....59+++xA...ft+++O;
#X connect 111 0 0 0 48......................X..........F....ft+++OC....n6+++y.....59+++;
#X connect 112 0 0 0 32.................n6+++e5+++O59+++m9+++it+++O;
#X connect 113 0 0 0 32.................n6+++Gz+++O59+++A8+++it+++O;
#X connect 114 0 0 0 32.................n6+++Ws+++O59+++U6+++it+++O;
#X connect 115 0 0 0 32.................n6+++2l+++O59+++s4+++it+++O;
#X connect 116 0 0 0 32.................n6+++Of+++O59+++C3+++it+++O;
#X connect 117 0 0 0 48.................c8+++Sz+++eW++++D8+++az+++OB9+++F8+++if+++uQ++++;
#X connect 118 0 0 0 48.................c8+++u1+++eW++++q8+++az+++ub9+++F8+++Km+++uQ++++;
#X connect 119 0 0 0 48.................c8+++K4+++eW++++R9+++az+++u19+++F8+++qs+++uQ++++;
#X connect 120 0 0 0 48.................c8+++u6+++eW++++69+++az+++uQ++++F8+++az+++uQ++++;
#X connect 121 0 0 0 48......................X8+++O.....V++++az+++Oq++++F8+++y5+++uQ++++;
#X connect 122 0 0 0 48......................j..........I....Xz+++eD....F8+++GA...fQ++++;
#X restore 209 9 pd output_host;
#N canvas 0 22 450 300 LED 0;
#X obj 159 269 else/pack2 bgcolor f f f;
#X obj 244 509 outlet;
#X obj 298 509 outlet;
#X obj 352 509 outlet;
#X obj 406 509 outlet;
#X obj 460 509 outlet;
#X obj 514 509 outlet;
#X obj 568 509 outlet;
#X obj 622 509 outlet;
#X obj 409 59 inlet _patch;
#X obj 402 108 route rgb;
#X obj 414 154 route 0 1 2 3 4 5 6 7;
#X obj 214 239 unpack 0 0 0;
#X obj 317 269 else/pack2 bgcolor f f f;
#X obj 372 239 unpack 0 0 0;
#X obj 475 269 else/pack2 bgcolor f f f;
#X obj 530 239 unpack 0 0 0;
#X obj 633 269 else/pack2 bgcolor f f f;
#X obj 688 239 unpack 0 0 0;
#X obj 224 384 else/pack2 bgcolor f f f;
#X obj 279 354 unpack 0 0 0;
#X obj 382 384 else/pack2 bgcolor f f f;
#X obj 437 354 unpack 0 0 0;
#X obj 540 384 else/pack2 bgcolor f f f;
#X obj 595 354 unpack 0 0 0;
#X obj 698 384 else/pack2 bgcolor f f f;
#X obj 753 354 unpack 0 0 0;
#X connect 0 0 1 0 32.................tA...TE...fa....UA...vM....;
#X connect 9 0 10 0 32.................O....n+++++C....5++++2A....;
#X connect 10 0 11 0 32.................M....v....PC....L....nA....;
#X connect 11 0 12 0 32.................V....jy+++uE....47+++GD....;
#X connect 11 1 20 0 48.................d....v4+++uG....b9+++yC...PZ++++7....j1+++Os....;
#X connect 11 2 14 0 32.................g....T6+++eH....09+++GD....;
#X connect 11 3 22 0 32.................ZA...T9+++uV....k++++SK....;
#X connect 11 4 16 0 32.................g.....C...PH....v....DD....;
#X connect 11 5 24 0 32.................7.....F....O....fA...PK....;
#X connect 11 6 18 0 32.................g....vJ...PH....rB...DD....;
#X connect 11 7 26 0 48.................s....3F...PK....tA...PD....2....DA...vM....s....;
#X connect 12 0 0 1 32.................E....P++++eA....z++++q.....;
#X connect 12 1 0 2 32.................E....z++++eA....8++++q.....;
#X connect 12 2 0 3 32.................E....T....PA....E....n.....;
#X connect 13 0 3 0 32.................tA...LB...fa....i....vM....;
#X connect 14 0 13 1 32.................E....P++++eA....z++++q.....;
#X connect 14 1 13 2 32.................E....z++++eA....8++++q.....;
#X connect 14 2 13 3 32.................E....T....PA....E....n.....;
#X connect 15 0 5 0 32.................tA...H++++ua....x++++yM....;
#X connect 16 0 15 1 32.................E....P++++eA....z++++q.....;
#X connect 16 1 15 2 32.................E....z++++eA....8++++q.....;
#X connect 16 2 15 3 32.................E....T....PA....E....n.....;
#X connect 17 0 7 0 32.................tA....7+++ua.....++++yM....;
#X connect 18 0 17 1 32.................E....P++++eA....z++++q.....;
#X connect 18 1 17 2 32.................E....z++++eA....8++++q.....;
#X connect 18 2 17 3 32.................E....T....PA....E....n.....;
#X connect 19 0 2 0 32.................i....nD...vH....JA...jF....;
#X connect 20 0 19 1 32.................E....P++++eA....z++++q.....;
#X connect 20 1 19 2 32.................E....z++++eA....8++++q.....;
#X connect 20 2 19 3 32.................E....T....PA....E....n.....;
#X connect 21 0 4 0 32.................0....fA...PM....X....jF....;
#X connect 22 0 21 1 32.................E....P++++eA....z++++q.....;
#X connect 22 1 21 2 32.................E....z++++eA....8++++q.....;
#X connect 22 2 21 3 32.................E....T....PA....E....n.....;
#X connect 23 0 6 0 32.................0....b9+++eM....m++++mF....;
#X connect 24 0 23 1 32.................E....P++++eA....z++++q.....;
#X connect 24 1 23 2 32.................E....z++++eA....8++++q.....;
#X connect 24 2 23 3 32.................E....T....PA....E....n.....;
#X connect 25 0 8 0 32.................0....T6+++eM....09+++mF....;
#X connect 26 0 25 1 32.................E....P++++eA....z++++q.....;
#X connect 26 1 25 2 32.................E....z++++eA....8++++q.....;
#X connect 26 2 25 3 32.................E....T....PA....E....n.....;
#X restore 169 99 pd LED colors;
#X text 14 348 GPIO;
#X obj 14 380 tgl 25 0 \$0-gpio-0-s \$0-gpio-0-r empty 17 7 0 10 #e4e4e4 #4d4d4d #373737 0 1;
#X obj 46 380 tgl 25 0 \$0-gpio-1-s \$0-gpio-1-r empty 17 7 0 10 #e4e4e4 #4d4d4d #373737 0 1;
#X obj 78 380 tgl 25 0 \$0-gpio-2-s \$0-gpio-2-r empty 17 7 0 10 #e4e4e4 #4d4d4d #373737 0 1;
#X obj 110 380 tgl 25 0 \$0-gpio-3-s \$0-gpio-3-r empty 17 7 0 10 #e4e4e4 #4d4d4d #373737 0 1;
#X obj 142 380 tgl 25 0 \$0-gpio-4-s \$0-gpio-4-r empty 17 7 0 10 #e4e4e4 #4d4d4d #373737 0 1;
#X obj 174 380 tgl 25 0 \$0-gpio-5-s \$0-gpio-5-r empty 17 7 0 10 #e4e4e4 #4d4d4d #373737 0 1;
#X obj 206 380 tgl 25 0 \$0-gpio-6-s \$0-gpio-6-r empty 17 7 0 10 #e4e4e4 #4d4d4d #373737 0 1;
#X obj 238 380 tgl 25 0 \$0-gpio-7-s \$0-gpio-7-r empty 17 7 0 10 #e4e4e4 #4d4d4d #373737 0 1;
#X obj 270 380 tgl 25 0 \$0-gpio-8-s \$0-gpio-8-r empty 17 7 0 10 #e4e4e4 #4d4d4d #373737 0 1;
#X obj 302 380 tgl 25 0 \$0-gpio-9-s \$0-gpio-9-r empty 17 7 0 10 #e4e4e4 #4d4d4d #373737 0 1;
#X obj 334 380 tgl 25 0 \$0-gpio-10-s \$0-gpio-10-r empty 17 7 0 10 #e4e4e4 #4d4d4d #373737 0 1;
#X obj 366 380 tgl 25 0 \$0-gpio-11-s \$0-gpio-11-r empty 17 7 0 10 #e4e4e4 #4d4d4d #373737 0 1;
#X obj 398 380 tgl 25 0 \$0-gpio-12-s \$0-gpio-12-r empty 17 7 0 10 #e4e4e4 #4d4d4d #373737 0 1;
#X obj 430 380 tgl 25 0 \$0-gpio-13-s \$0-gpio-13-r empty 17 7 0 10 #e4e4e4 #4d4d4d #373737 0 1;
#X obj 462 380 tgl 25 0 \$0-gpio-14-s \$0-gpio-14-r empty 17 7 0 10 #e4e4e4 #4d4d4d #373737 0 1;
#X obj 494 380 tgl 25 0 \$0-gpio-15-s \$0-gpio-15-r empty 17 7 0 10 #e4e4e4 #4d4d4d #373737 0 1;
#X obj 526 380 tgl 25 0 \$0-gpio-16-s \$0-gpio-16-r empty 17 7 0 10 #e4e4e4 #4d4d4d #373737 0 1;
#X obj 558 380 tgl 25 0 \$0-gpio-17-s \$0-gpio-17-r empty 17 7 0 10 #e4e4e4 #4d4d4d #373737 0 1;
#X obj 590 380 tgl 25 0 \$0-gpio-18-s \$0-gpio-18-r empty 17 7 0 10 #e4e4e4 #4d4d4d #373737 0 1;
#X obj 622 380 tgl 25 0 \$0-gpio-19-s \$0-gpio-19-r empty 17 7 0 10 #e4e4e4 #4d4d4d #373737 0 1;
#X obj 14 415 tgl 25 0 \$0-gpio-20-s \$0-gpio-20-r empty 17 7 0 10 #e4e4e4 #4d4d4d #373737 0 1;
#X obj 46 415 tgl 25 0 \$0-gpio-21-s \$0-gpio-21-r empty 17 7 0 10 #e4e4e4 #4d4d4d #373737 0 1;
#X obj 78 415 tgl 25 0 \$0-gpio-22-s \$0-gpio-22-r empty 17 7 0 10 #e4e4e4 #4d4d4d #373737 0 1;
#X obj 110 415 tgl 25 0 \$0-gpio-23-s \$0-gpio-23-r empty 17 7 0 10 #e4e4e4 #4d4d4d #373737 0 1;
#X obj 142 415 tgl 25 0 \$0-gpio-24-s \$0-gpio-24-r empty 17 7 0 10 #e4e4e4 #4d4d4d #373737 0 1;
#X obj 174 415 tgl 25 0 \$0-gpio-25-s \$0-gpio-25-r empty 17 7 0 10 #e4e4e4 #4d4d4d #373737 0 1;
#X obj 206 415 tgl 25 0 \$0-gpio-26-s \$0-gpio-26-r empty 17 7 0 10 #e4e4e4 #4d4d4d #373737 0 1;
#X obj 238 415 tgl 25 0 \$0-gpio-27-s \$0-gpio-27-r empty 17 7 0 10 #e4e4e4 #4d4d4d #373737 0 1;
#X obj 270 415 tgl 25 0 \$0-gpio-28-s \$0-gpio-28-r empty 17 7 0 10 #e4e4e4 #4d4d4d #373737 0 1;
#X obj 302 415 tgl 25 0 \$0-gpio-29-s \$0-gpio-29-r empty 17 7 0 10 #e4e4e4 #4d4d4d #373737 0 1;
#X obj 334 415 tgl 25 0 \$0-gpio-30-s \$0-gpio-30-r empty 17 7 0 10 #e4e4e4 #4d4d4d #373737 0 1;
#X obj 366 415 tgl 25 0 \$0-gpio-31-s \$0-gpio-31-r empty 17 7 0 10 #e4e4e4 #4d4d4d #373737 0 1;
#X obj 398 415 tgl 25 0 \$0-gpio-32-s \$0-gpio-32-r empty 17 7 0 10 #e4e4e4 #4d4d4d #373737 0 1;
#X obj 430 415 tgl 25 0 \$0-gpio-33-s \$0-gpio-33-r empty 17 7 0 10 #e4e4e4 #4d4d4d #373737 0 1;
#X obj 462 415 tgl 25 0 \$0-gpio-34-s \$0-gpio-34-r empty 17 7 0 10 #e4e4e4 #4d4d4d #373737 0 1;
#X obj 494 415 tgl 25 0 \$0-gpio-35-s \$0-gpio-35-r empty 17 7 0 10 #e4e4e4 #4d4d4d #373737 0 1;
#X obj 526 415 tgl 25 0 \$0-gpio-36-s \$0-gpio-36-r empty 17 7 0 10 #e4e4e4 #4d4d4d #373737 0 1;
#X obj 558 415 tgl 25 0 \$0-gpio-37-s \$0-gpio-37-r empty 17 7 0 10 #e4e4e4 #4d4d4d #373737 0 1;
#X obj 590 415 tgl 25 0 \$0-gpio-38-s \$0-gpio-38-r empty 17 7 0 10 #e4e4e4 #4d4d4d #373737 0 1;
#X obj 622 415 tgl 25 0 \$0-gpio-39-s \$0-gpio-39-r empty 17 7 0 10 #e4e4e4 #4d4d4d #373737 0 1;
#X connect 0 0 2 0 32.................E.........PA.........j.....;
#X connect 2 0 1 0 32.................F.........fA.........v.....;
#X connect 11 0 19 0 32.................e....77++++G....O++++2C....;
#X connect 12 0 20 0 32.................e....P9++++G....j++++2C....;
#X connect 13 0 21 0 32.................e.........vG.........zC....;
#X connect 14 0 22 0 32.................e....PA...vG....T....zC....;
#X connect 15 0 23 0 32.................e....fA...vG....X....zC....;
#X connect 16 0 24 0 32.................e....zB...vG....s....zC....;
#X connect 17 0 25 0 32.................e....jD...vG....IA...zC....;
#X connect 18 0 26 0 32.................e....3E...vG....dA...zC....;
#X connect 30 0 32 0 32.................F.........fA.........r.....;
#X connect 30 0 31 0 32.................S.........vD.........TB....;
#X connect 30 0 34 0;
#X connect 33 0 28 0 32.................F....7....fA....O....v.....;
#X connect 33 0 29 0 32.................S....z+++++D....8++++WB....;
#X connect 34 0 11 0 32.................3....75+++ON....u9++++F....;
#X connect 34 1 12 0 32.................3....r8+++ON....a+++++F....;
#X connect 34 2 13 0 32.................3..........N.........7F....;
#X connect 34 3 14 0 32.................3....rB....N....q....7F....;
#X connect 34 4 15 0 48.................S....TD...vD....EA...TB....Z....k....fF...va....;
#X connect 34 5 16 0 48.................b....HH....G....BB...nB....k....p....PI...va....;
#X connect 34 6 17 0 32.................S....jK...vD....4B...7F....;
#X connect 34 7 18 0 32.................b....TN....G....kC...7F....;
#X coords 0 0 1 1 519 108 2 73 157;
