#N canvas 827 239 527 327 12;
#X obj 104 108 r gpio_in;
#X obj 98 379 s gpio_out;
#X obj 104 138 route 17 27 22;
#X msg 98 347 5 \$1;
#X msg 145 347 6 \$1;
#X msg 192 347 13 \$1;
#X obj 305 307 s oled;
#X msg 305 232 text 1 0 0 Cool Patch;
#X msg 325 198 rect 0 0 0 128 64;
#X obj 310 108 loadbang;
#X obj 310 153 t b b;
#X obj 102 182 tgl 25 0 empty empty empty 17 7 0 10 #e4e4e4 #4d4d4d #373737 0 1;
#X obj 134 182 tgl 25 0 empty empty empty 17 7 0 10 #e4e4e4 #4d4d4d #373737 0 1;
#X obj 166 182 tgl 25 0 empty empty empty 17 7 0 10 #e4e4e4 #4d4d4d #373737 0 1;
#X obj 104 294 tgl 25 0 empty empty empty 17 7 0 10 #e4e4e4 #4d4d4d #373737 0 1;
#X obj 136 294 tgl 25 0 empty empty empty 17 7 0 10 #e4e4e4 #4d4d4d #373737 0 1;
#X obj 168 294 tgl 25 0 empty empty empty 17 7 0 10 #e4e4e4 #4d4d4d #373737 0 1;
#X text 111 215 GPIO input;
#X text 111 266 GPIO output;
#X text 368 152 clear the screen and write some text;
#X obj 524 400 osc~;
#X obj 524 362 mtof;
#X obj 524 462 dac~;
#X obj 524 322 random 127;
#X obj 524 279 metro 100;
#X obj 527 241 tgl 25 0 empty empty empty 17 7 0 10 #e4e4e4 #4d4d4d #373737 0 1;
#X obj 527 208 loadbang;
#X connect 0 0 2 0;
#X connect 2 0 11 0;
#X connect 2 1 12 0;
#X connect 2 2 13 0;
#X connect 3 0 1 0;
#X connect 7 0 6 0;
#X connect 8 0 6 0;
#X connect 9 0 10 0;
#X connect 10 0 7 0;
#X connect 10 1 8 0;
#X connect 14 0 3 0;
#X connect 15 0 4 0;
#X connect 16 0 5 0;
#X connect 20 0 22 0;
#X connect 20 0 22 1;
#X connect 21 0 20 0;
#X connect 23 0 21 0;
#X connect 24 0 23 0;
#X connect 25 0 24 0;
#X connect 26 0 25 0;
