#N canvas 827 239 527 327 12;
#X obj 159 144 r gpio_in;
#X obj 149 424 s gpio_out;
#X obj 370 343 s oled;
#X msg 340 196 text 1 0 0 Cool Patch;
#X obj 159 208 tgl 25 0 empty empty empty 17 7 0 10 #e4e4e4 #4d4d4d #373737 0 1;
#X obj 149 348 tgl 25 0 empty empty empty 17 7 0 10 #e4e4e4 #4d4d4d #373737 0 1;
#X obj 592 283 tgl 25 0 empty empty empty 17 7 0 10 #e4e4e4 #4d4d4d #373737 0 1;
#X obj 592 253 loadbang;
#X obj 592 315 metro 500;
#X msg 565 83 circle 1 0 0 10;
#X msg 546 182 image 10 10 example.png;
#X msg 264 118 rectangle 0 0 0 128 64;
#X msg 149 389 25 \$1;
#X obj 159 174 route 23;
#X text 109 243 This is the onboard button.;
#X text 109 314 This is the onboard LED.;
#X obj 77 373 + 1;
#X obj 77 409 % 2;
#X obj 33 373 i;
#X text 314 59 Example OLED messages;
#X text 264 97 color x y width height;
#X text 340 173 color x y text;
#X text 547 157 x y filename;
#X obj 589 348 s demo;
#X obj 33 343 r demo;
#X obj 422 538 osc~;
#X obj 422 509 mtof;
#X obj 422 600 dac~;
#X obj 422 483 random 127;
#X obj 422 566 *~;
#X obj 372 441 r demo;
#X text 324 414 This just shows the audio is working.;
#X obj 376 487 tgl 25 0 empty empty empty 17 7 0 10 #e4e4e4 #4d4d4d #373737 0 1;
#X msg 441 118 pixel 1 20 20;
#X text 441 97 color x y;
#X connect 0 0 13 0;
#X connect 3 0 2 0;
#X connect 5 0 12 0;
#X connect 6 0 8 0;
#X connect 7 0 6 0;
#X connect 8 0 23 0;
#X connect 9 0 2 0;
#X connect 10 0 2 0;
#X connect 11 0 2 0;
#X connect 12 0 1 0;
#X connect 13 0 4 0;
#X connect 16 0 17 0;
#X connect 16 0 18 1;
#X connect 17 0 5 0;
#X connect 18 0 16 0;
#X connect 24 0 18 0;
#X connect 25 0 29 0;
#X connect 26 0 25 0;
#X connect 28 0 26 0;
#X connect 29 0 27 0;
#X connect 29 0 27 1;
#X connect 30 0 28 0;
#X connect 30 0 32 0;
#X connect 32 0 29 1;
#X connect 33 0 2 0;
