#N canvas 827 239 527 327 12;
#X obj 159 144 r gpio_in;
#X obj 149 424 s gpio_out;
#X obj 370 343 s oled;
#X obj 159 208 tgl 25 0 empty empty empty 17 7 0 10 #e4e4e4 #4d4d4d #373737 0 1;
#X obj 149 348 tgl 25 0 empty empty empty 17 7 0 10 #e4e4e4 #4d4d4d #373737 0 1;
#X obj 592 283 tgl 25 0 empty empty empty 17 7 0 10 #e4e4e4 #4d4d4d #373737 0 1;
#X obj 592 219 loadbang;
#X obj 592 315 metro 500;
#X msg 264 118 rectangle 0 0 0 128 64;
#X msg 149 389 25 \$1;
#X obj 159 174 route 23;
#X text 109 243 This is the onboard button.;
#X text 109 314 This is the onboard LED.;
#X obj 77 373 + 1;
#X obj 77 409 % 2;
#X obj 33 373 i;
#X text 314 59 Example OLED messages;
#X text 264 97 color x y width height;
#X text 340 173 color x y text;
#X obj 589 348 s demo;
#X obj 33 343 r demo;
#X msg 441 118 pixel 1 20 20;
#X text 441 97 color x y;
#X obj 214 39 loadbang;
#X msg 314 198 text 1 0 0 hello;
#X obj 214 69 t b b b;
#X msg 287 283 update;
#X obj 864 184 r rotary;
#X obj 757 373 knob 50 -127 127 0 0 empty empty #191919 #696969 #E1E1E1 1 0 0 0 1 270 0 0 0;
#X obj 864 229 route 0 1 2 3;
#X obj 729 325 i;
#X obj 778 325 +;
#X obj 744 274 t b f;
#X obj 852 373 knob 50 -127 127 0 0 empty empty #191919 #696969 #E1E1E1 1 0 0 0 1 270 0 0 0;
#X obj 824 325 i;
#X obj 873 325 +;
#X obj 839 274 t b f;
#X obj 928 373 knob 50 -127 127 0 0 empty empty #191919 #696969 #E1E1E1 1 0 0 0 1 270 0 0 0;
#X obj 900 325 i;
#X obj 949 325 +;
#X obj 915 274 t b f;
#X obj 1023 373 knob 50 -127 127 0 0 empty empty #191919 #696969 #E1E1E1 1 0 0 0 1 270 0 0 0;
#X obj 995 325 i;
#X obj 1044 325 +;
#X obj 1010 274 t b f;
#X text 671 128 rotary messages are id & value \, where value is -1 or 1 depnding on direction;
#X text 298 256 call this to show drawn tings;
#X connect 0 0 10 0;
#X connect 4 0 9 0;
#X connect 5 0 7 0;
#X connect 6 0 5 0;
#X connect 7 0 19 0;
#X connect 8 0 2 0;
#X connect 9 0 1 0;
#X connect 10 0 3 0;
#X connect 13 0 14 0;
#X connect 13 0 15 1;
#X connect 14 0 4 0;
#X connect 15 0 13 0;
#X connect 20 0 15 0;
#X connect 21 0 2 0;
#X connect 23 0 25 0;
#X connect 24 0 2 0;
#X connect 25 0 26 0;
#X connect 25 1 24 0;
#X connect 25 2 8 0;
#X connect 26 0 2 0;
#X connect 27 0 29 0;
#X connect 29 0 32 0;
#X connect 29 1 36 0;
#X connect 29 2 40 0;
#X connect 29 3 44 0;
#X connect 30 0 28 0;
#X connect 30 0 31 0;
#X connect 31 0 30 1;
#X connect 32 0 30 0;
#X connect 32 1 31 1;
#X connect 34 0 33 0;
#X connect 34 0 35 0;
#X connect 35 0 34 1;
#X connect 36 0 34 0;
#X connect 36 1 35 1;
#X connect 38 0 37 0;
#X connect 38 0 39 0;
#X connect 39 0 38 1;
#X connect 40 0 38 0;
#X connect 40 1 39 1;
#X connect 42 0 41 0;
#X connect 42 0 43 0;
#X connect 43 0 42 1;
#X connect 44 0 42 0;
#X connect 44 1 43 1;
