#N canvas 1980 88 1007 828 12;
#X text 574 75 example client (python will do this);
#X obj 53 335 route 0 1 2 3 4 5 6 7;
#X obj 59 365 route 0 1 2 3 4 5 6 7;
#X obj 16 366 tgl 19 0 empty empty empty 0 -10 0 12 #fcfcfc #000000 #000000 0 1;
#X obj 37 396 tgl 19 0 empty empty empty 0 -10 0 12 #fcfcfc #000000 #000000 0 1;
#X obj 60 396 tgl 19 0 empty empty empty 0 -10 0 12 #fcfcfc #000000 #000000 0 1;
#X obj 83 396 tgl 19 0 empty empty empty 0 -10 0 12 #fcfcfc #000000 #000000 0 1;
#X obj 106 396 tgl 19 0 empty empty empty 0 -10 0 12 #fcfcfc #000000 #000000 0 1;
#X obj 130 397 tgl 19 0 empty empty empty 0 -10 0 12 #fcfcfc #000000 #000000 0 1;
#X obj 153 397 tgl 19 0 empty empty empty 0 -10 0 12 #fcfcfc #000000 #000000 0 1;
#X obj 176 397 tgl 19 0 empty empty empty 0 -10 0 12 #fcfcfc #000000 #000000 0 1;
#X obj 199 397 tgl 19 0 empty empty empty 0 -10 0 12 #fcfcfc #000000 #000000 0 1;
#X obj 41 428 vsl 19 162 0 255 0 0 empty empty empty 0 -9 0 12 #fcfcfc #000000 #000000 0 1;
#X obj 63 428 vsl 19 162 0 255 0 0 empty empty empty 0 -9 0 12 #fcfcfc #000000 #000000 0 1;
#X obj 85 428 vsl 19 162 0 255 0 0 empty empty empty 0 -9 0 12 #fcfcfc #000000 #000000 0 1;
#X obj 107 428 vsl 19 162 0 255 0 0 empty empty empty 0 -9 0 12 #fcfcfc #000000 #000000 0 1;
#X obj 129 428 vsl 19 162 0 255 0 0 empty empty empty 0 -9 0 12 #fcfcfc #000000 #000000 0 1;
#X obj 151 428 vsl 19 162 0 255 0 0 empty empty empty 0 -9 0 12 #fcfcfc #000000 #000000 0 1;
#X obj 173 428 vsl 19 162 0 255 0 0 empty empty empty 0 -9 0 12 #fcfcfc #000000 #000000 0 1;
#X obj 195 428 vsl 19 162 0 255 0 0 empty empty empty 0 -9 0 12 #fcfcfc #000000 #000000 0 1;
#X msg 683 161 connect localhost 8000;
#X msg 683 135 disconnect;
#X obj 469 626 tgl 19 0 empty empty empty 0 -10 0 12 #fcfcfc #000000 #000000 0 1;
#X obj 596 413 tgl 19 0 empty empty empty 0 -10 0 12 #fcfcfc #000000 #000000 0 1;
#X obj 619 413 tgl 19 0 empty empty empty 0 -10 0 12 #fcfcfc #000000 #000000 0 1;
#X obj 642 413 tgl 19 0 empty empty empty 0 -10 0 12 #fcfcfc #000000 #000000 0 1;
#X obj 665 413 tgl 19 0 empty empty empty 0 -10 0 12 #fcfcfc #000000 #000000 0 1;
#X obj 689 414 tgl 19 0 empty empty empty 0 -10 0 12 #fcfcfc #000000 #000000 0 1;
#X obj 712 414 tgl 19 0 empty empty empty 0 -10 0 12 #fcfcfc #000000 #000000 0 1;
#X obj 735 414 tgl 19 0 empty empty empty 0 -10 0 12 #fcfcfc #000000 #000000 0 1;
#X obj 758 414 tgl 19 0 empty empty empty 0 -10 0 12 #fcfcfc #000000 #000000 0 1;
#X obj 599 444 vsl 19 162 0 255 0 0 empty empty empty 0 -9 0 12 #fcfcfc #000000 #000000 0 1;
#X obj 621 444 vsl 19 162 0 255 0 0 empty empty empty 0 -9 0 12 #fcfcfc #000000 #000000 0 1;
#X obj 643 444 vsl 19 162 0 255 0 0 empty empty empty 0 -9 0 12 #fcfcfc #000000 #000000 0 1;
#X obj 665 444 vsl 19 162 0 255 0 0 empty empty empty 0 -9 0 12 #fcfcfc #000000 #000000 0 1;
#X obj 687 444 vsl 19 162 0 255 0 0 empty empty empty 0 -9 0 12 #fcfcfc #000000 #000000 0 1;
#X obj 709 444 vsl 19 162 0 255 0 0 empty empty empty 0 -9 0 12 #fcfcfc #000000 #000000 0 1;
#X obj 731 444 vsl 19 162 0 255 0 0 empty empty empty 0 -9 0 12 #fcfcfc #000000 #000000 0 1;
#X obj 753 444 vsl 19 162 0 255 0 0 empty empty empty 0 -9 0 12 #fcfcfc #000000 #000000 0 1;
#X obj 602 221 udpclient;
#X obj 15 175 packOSC;
#X obj 36 305 routeOSC /sw /rot /btn;
#X obj 565 178 packOSC;
#X msg 469 657 /sw \$1;
#X obj 13 221 unpackOSC;
#X obj 602 245 unpackOSC;
#X obj 543 313 print rgb;
#X obj 617 314 print hsv;
#X obj 542 364 route 0 1 2 3 4 5 6 7;
#X msg 131 114 /rot 0 100;
#X msg 602 616 /rot 0 \$1;
#X msg 602 639 /rot 1 \$1;
#X msg 600 662 /rot 2 \$1;
#X msg 600 685 /rot 3 \$1;
#X msg 694 618 /rot 4 \$1;
#X msg 694 641 /rot 5 \$1;
#X msg 692 664 /rot 6 \$1;
#X msg 692 687 /rot 7 \$1;
#X obj 584 121 r OSCtest;
#X obj 467 681 s OSCtest;
#X obj 650 728 s OSCtest;
#X obj 441 590 s OSCtest;
#X msg 426 484 /btn 0 \$1;
#X msg 426 507 /btn 1 \$1;
#X msg 424 530 /btn 2 \$1;
#X msg 424 553 /btn 3 \$1;
#X msg 500 483 /btn 4 \$1;
#X msg 500 506 /btn 5 \$1;
#X msg 498 529 /btn 6 \$1;
#X msg 498 552 /btn 7 \$1;
#X msg 126 60 /rgb 0 255 0 0;
#X obj 575 271 routeOSC /rgb /hsv /rot /text /rect /graph;
#X obj 715 317 print text;
#X obj 751 355 print rect;
#X obj 803 394 print graph;
#X msg 129 145 /text 1 0 0 This is some text;
#X msg 129 176 /rect 0 0 0 128 64;
#X msg 128 88 /hsv 0 0.3 1 1;
#X text 240 86 Set RGB 0 to green (alll nums 0-1);
#X text 244 61 Set RGB 0 to red (all nums 0-255);
#X text 222 111 Set rotary 0 to 100 (out of 255);
#X msg 132 207 /graph 1 0 0 128 64 0 1 2 4;
#X text 269 177 clear rectangle 0x0 - 128x64;
#X text 345 147 black text at 0x0;
#X text 337 209 black graph at 0x0 - 128x64;
#X text 37 280 This is display of what UI is doing;
#X obj 13 197 udpserver 8000;
#X text 56 21 pd server (that can send commands to client);
#X obj 13 620 print switch;
#X text 293 338 osc stuff comes from osc;
#X text 291 362 udp stuff comes from iemnet;
#X connect 1 0 12 0;
#X connect 1 1 13 0;
#X connect 1 2 14 0;
#X connect 1 3 15 0;
#X connect 1 4 16 0;
#X connect 1 5 17 0;
#X connect 1 6 18 0;
#X connect 1 7 19 0;
#X connect 2 0 4 0;
#X connect 2 1 5 0;
#X connect 2 2 6 0;
#X connect 2 3 7 0;
#X connect 2 4 8 0;
#X connect 2 5 9 0;
#X connect 2 6 10 0;
#X connect 2 7 11 0;
#X connect 3 0 88 0;
#X connect 20 0 39 0;
#X connect 21 0 39 0;
#X connect 22 0 43 0;
#X connect 23 0 62 0;
#X connect 24 0 63 0;
#X connect 25 0 64 0;
#X connect 26 0 65 0;
#X connect 27 0 66 0;
#X connect 28 0 67 0;
#X connect 29 0 68 0;
#X connect 30 0 69 0;
#X connect 31 0 50 0;
#X connect 32 0 51 0;
#X connect 33 0 52 0;
#X connect 34 0 53 0;
#X connect 35 0 54 0;
#X connect 36 0 55 0;
#X connect 37 0 56 0;
#X connect 38 0 57 0;
#X connect 39 0 45 0;
#X connect 40 0 86 0;
#X connect 41 0 3 0;
#X connect 41 1 1 0;
#X connect 41 2 2 0;
#X connect 42 0 39 0;
#X connect 43 0 59 0;
#X connect 44 0 41 0;
#X connect 45 0 71 0;
#X connect 48 0 31 0;
#X connect 48 1 32 0;
#X connect 48 2 33 0;
#X connect 48 3 34 0;
#X connect 48 4 35 0;
#X connect 48 5 36 0;
#X connect 48 6 37 0;
#X connect 48 7 38 0;
#X connect 49 0 40 0;
#X connect 50 0 60 0;
#X connect 51 0 60 0;
#X connect 52 0 60 0;
#X connect 53 0 60 0;
#X connect 54 0 60 0;
#X connect 55 0 60 0;
#X connect 56 0 60 0;
#X connect 57 0 60 0;
#X connect 58 0 42 0;
#X connect 62 0 61 0;
#X connect 63 0 61 0;
#X connect 64 0 61 0;
#X connect 65 0 61 0;
#X connect 66 0 61 0;
#X connect 67 0 61 0;
#X connect 68 0 61 0;
#X connect 69 0 61 0;
#X connect 70 0 40 0;
#X connect 71 0 46 0;
#X connect 71 1 47 0;
#X connect 71 2 48 0;
#X connect 71 3 72 0;
#X connect 71 4 73 0;
#X connect 71 5 74 0;
#X connect 75 0 40 0;
#X connect 76 0 40 0;
#X connect 77 0 40 0;
#X connect 81 0 40 0;
#X connect 86 0 44 0;
