#N canvas 827 239 527 327 12;
#X obj 219 54 r _host;
#X obj 216 133 route 0;
#X obj 216 167 expr ($f1/255) * 127;
#X obj 216 202 mtof;
#X obj 216 101 route rotary button;
#X obj 216 239 osc~;
#X obj 216 281 *~;
#X obj 216 323 dac~;
#X obj 279 264 / 255;
#X obj 290 133 route 0;
#X connect 0 0 4 0;
#X connect 1 0 2 0;
#X connect 2 0 3 0;
#X connect 3 0 5 0;
#X connect 4 0 1 0;
#X connect 4 1 9 0;
#X connect 5 0 6 0;
#X connect 6 0 7 0;
#X connect 6 0 7 1;
#X connect 8 0 6 1;
#X connect 9 0 8 0;
